<?xml version="1.0" encoding="utf-8"?>
<svg id="master-artboard" viewBox="0 0 582.9453125 192.57859802246094" version="1.1" xmlns="http://www.w3.org/2000/svg" x="0px" y="0px" style="enable-background:new 0 0 1400 980;" width="523px"><rect id="ee-background" x="0" y="0" width="582.9453125" height="192.57859802246094" style="fill: white; fill-opacity: 0; pointer-events: none;"/><defs><style id="ee-google-fonts">@import url(https://fonts.googleapis.com/css?family=Balthazar:400);</style></defs><path d="M 129.8883819580078 90.0199966430664 L 129.5083770751953 90.5 L 129.14837646484375 90.37999725341797 L 130.1283721923828 87.43000030517578 L 130.51837158203125 87.5 L 130.4183807373047 88.48999786376953 C 131.23837280273438 88.84333038330078 131.98170471191406 89.0199966430664 132.64837646484375 89.0199966430664 C 133.32171630859375 89.0199966430664 133.8350372314453 88.9000015258789 134.18836975097656 88.66000366210938 C 134.5417022705078 88.41999816894531 134.71836853027344 88.0999984741211 134.71836853027344 87.69999694824219 C 134.71836853027344 87.30000305175781 134.5350341796875 86.96666717529297 134.1683807373047 86.69999694824219 C 133.7950439453125 86.43333435058594 133.3450469970703 86.19999694824219 132.81837463378906 86 C 132.2917022705078 85.80000305175781 131.76837158203125 85.58000183105469 131.24838256835938 85.33999633789062 C 130.72837829589844 85.0999984741211 130.28504943847656 84.76667022705078 129.9183807373047 84.33999633789062 C 129.5517120361328 83.90666961669922 129.36837768554688 83.33999633789062 129.36837768554688 82.63999938964844 C 129.36837768554688 81.94667053222656 129.751708984375 81.34333038330078 130.51837158203125 80.83000183105469 C 131.2850341796875 80.31666564941406 132.26170349121094 80.05999755859375 133.44837951660156 80.05999755859375 C 134.13504028320312 80.05999755859375 134.828369140625 80.1500015258789 135.52838134765625 80.33000183105469 L 135.74838256835938 79.77999877929688 L 136.1283721923828 79.77999877929688 L 135.98837280273438 82.98999786376953 L 135.578369140625 82.97000122070312 L 135.4583740234375 82.08000183105469 C 134.35836791992188 81.5999984741211 133.47171020507812 81.36000061035156 132.79837036132812 81.36000061035156 C 131.69171142578125 81.36000061035156 131.1383819580078 81.72666931152344 131.1383819580078 82.45999908447266 C 131.1383819580078 82.77999877929688 131.328369140625 83.05999755859375 131.7083740234375 83.30000305175781 C 132.0817108154297 83.54000091552734 132.53170776367188 83.75666809082031 133.05838012695312 83.94999694824219 C 133.5850372314453 84.1433334350586 134.1150360107422 84.36000061035156 134.64837646484375 84.5999984741211 C 135.175048828125 84.83999633789062 135.6250457763672 85.18333435058594 135.99838256835938 85.62999725341797 C 136.3783721923828 86.07666778564453 136.56837463378906 86.61333465576172 136.56837463378906 87.23999786376953 C 136.56837463378906 88.1866683959961 136.175048828125 88.9433364868164 135.3883819580078 89.51000213623047 C 134.60171508789062 90.07666778564453 133.56170654296875 90.36000061035156 132.26837158203125 90.36000061035156 C 131.54837036132812 90.36000061035156 130.75503540039062 90.24666595458984 129.8883819580078 90.0199966430664 ZM 138.4698028564453 75.52999877929688 L 141.56979370117188 75.26000213623047 L 141.32980346679688 79.77999877929688 L 141.32980346679688 85.75 L 141.51979064941406 89.37999725341797 L 142.9597930908203 89.54000091552734 L 142.93980407714844 90 L 138.56979370117188 90 L 138.54978942871094 89.54000091552734 L 139.26979064941406 89.37999725341797 L 139.47979736328125 85.75 L 139.47979736328125 79.77999877929688 L 139.26979064941406 76.1500015258789 L 138.44979858398438 75.97999572753906 L 138.4698028564453 75.52999877929688 M 141.75979614257812 84.72000122070312 L 141.75979614257812 84.55000305175781 L 143.8697967529297 82.51000213623047 L 144.82980346679688 81.05000305175781 L 143.7498016357422 80.93000030517578 L 143.77980041503906 80.41999816894531 L 148.06979370117188 80.41999816894531 L 148.09979248046875 80.87999725341797 L 147.37979125976562 81.05000305175781 L 143.9197998046875 84.45999908447266 L 147.82980346679688 89.37999725341797 L 148.57980346679688 89.54000091552734 L 148.5498046875 90 L 145.35980224609375 90 L 144.18980407714844 87.81999969482422 L 141.75979614257812 84.72000122070312 ZM 157.4882049560547 81.05000305175781 L 152.25820922851562 93.33999633789062 L 151.7281951904297 95.30000305175781 L 148.658203125 95.30000305175781 L 148.63819885253906 94.87000274658203 L 149.66819763183594 94.69999694824219 L 152.25820922851562 89.9800033569336 L 148.658203125 81.05000305175781 L 147.93820190429688 80.87999725341797 L 147.9582061767578 80.41999816894531 L 152.2082061767578 80.41999816894531 L 152.2382049560547 80.93000030517578 L 151.17820739746094 81.05000305175781 L 151.67820739746094 83.20999908447266 L 153.16819763183594 87.83999633789062 L 154.99819946289062 83.20999908447266 L 155.42820739746094 81.05000305175781 L 154.3682098388672 80.93000030517578 L 154.39820861816406 80.41999816894531 L 158.18820190429688 80.41999816894531 L 158.2082061767578 80.87999725341797 L 157.4882049560547 81.05000305175781 ZM 168.05825805664062 90.36000061035156 C 166.6649169921875 90.36000061035156 165.55825805664062 89.8933334350586 164.73825073242188 88.95999908447266 C 163.91159057617188 88.0199966430664 163.49826049804688 86.7699966430664 163.49826049804688 85.20999908447266 C 163.49826049804688 83.6500015258789 163.97825622558594 82.40333557128906 164.93824768066406 81.47000122070312 C 165.89825439453125 80.52999877929688 167.17825317382812 80.05999755859375 168.77825927734375 80.05999755859375 C 169.4649200439453 80.05999755859375 170.2015838623047 80.13999938964844 170.98825073242188 80.30000305175781 L 171.17825317382812 79.77999877929688 L 171.55825805664062 79.77999877929688 L 171.39825439453125 83.08999633789062 L 170.98825073242188 83.08999633789062 L 170.9182586669922 82.18000030517578 C 170.01824951171875 81.68000030517578 169.1715850830078 81.43000030517578 168.3782501220703 81.43000030517578 C 167.59158325195312 81.43000030517578 166.9249267578125 81.77999877929688 166.3782501220703 82.4800033569336 C 165.8315887451172 83.17333221435547 165.55825805664062 84.08333587646484 165.55825805664062 85.20999908447266 C 165.55825805664062 86.336669921875 165.81158447265625 87.25333404541016 166.31825256347656 87.95999908447266 C 166.82492065429688 88.66666412353516 167.52491760253906 89.0199966430664 168.4182586669922 89.0199966430664 C 169.31158447265625 89.0199966430664 170.18492126464844 88.71333312988281 171.0382537841797 88.0999984741211 L 171.43824768066406 87.13999938964844 L 171.8782501220703 87.23999786376953 L 171.1282501220703 90.62000274658203 L 170.64825439453125 90.62000274658203 L 170.67825317382812 90 C 169.82492065429688 90.23999786376953 168.9515838623047 90.36000061035156 168.05825805664062 90.36000061035156 ZM 174.39317321777344 79.80000305175781 L 174.61317443847656 80.33000183105469 C 175.6331787109375 80.1500015258789 176.503173828125 80.05999755859375 177.22317504882812 80.05999755859375 C 178.5831756591797 80.05999755859375 179.6265106201172 80.34666442871094 180.35317993164062 80.91999816894531 C 181.0865020751953 81.48666381835938 181.4531707763672 82.3066635131836 181.4531707763672 83.37999725341797 L 181.40316772460938 85.75 L 181.61317443847656 89.3499984741211 L 182.4331817626953 89.5199966430664 L 182.41317749023438 89.9800033569336 L 179.4331817626953 90.19000244140625 L 179.4331817626953 89.20999908447266 C 178.48651123046875 89.97666931152344 177.52650451660156 90.36000061035156 176.5531768798828 90.36000061035156 C 175.579833984375 90.36000061035156 174.81651306152344 90.09666442871094 174.26316833496094 89.56999969482422 C 173.7098388671875 89.0433349609375 173.4331817626953 88.3133316040039 173.4331817626953 87.37999725341797 C 173.4331817626953 86.45333099365234 173.8331756591797 85.76333618164062 174.6331787109375 85.30999755859375 C 175.4331817626953 84.8499984741211 177.08984375 84.413330078125 179.60317993164062 84 L 179.60317993164062 83.37999725341797 C 179.60317993164062 82.75333404541016 179.4231719970703 82.26667022705078 179.06317138671875 81.91999816894531 C 178.7031707763672 81.58000183105469 178.1698455810547 81.41000366210938 177.4631805419922 81.41000366210938 C 176.76316833496094 81.41000366210938 175.85984802246094 81.63999938964844 174.753173828125 82.0999984741211 L 174.65316772460938 82.98999786376953 L 174.253173828125 83.0199966430664 L 174.01316833496094 79.80000305175781 L 174.39317321777344 79.80000305175781 M 179.5531768798828 85.37000274658203 C 177.90650939941406 85.66999816894531 176.81317138671875 85.94667053222656 176.27317810058594 86.19999694824219 C 175.73983764648438 86.44667053222656 175.47317504882812 86.81666564941406 175.47317504882812 87.30999755859375 C 175.47317504882812 87.80999755859375 175.6398468017578 88.22000122070312 175.97317504882812 88.54000091552734 C 176.31317138671875 88.86000061035156 176.79983520507812 89.0199966430664 177.4331817626953 89.0199966430664 C 178.05984497070312 89.0199966430664 178.72650146484375 88.66666412353516 179.4331817626953 87.95999908447266 L 179.5531768798828 85.37000274658203 ZM 184.86158752441406 90.0199966430664 L 184.48158264160156 90.5 L 184.12158203125 90.37999725341797 L 185.10157775878906 87.43000030517578 L 185.4915771484375 87.5 L 185.39158630371094 88.48999786376953 C 186.21157836914062 88.84333038330078 186.9549102783203 89.0199966430664 187.62158203125 89.0199966430664 C 188.294921875 89.0199966430664 188.80824279785156 88.9000015258789 189.1615753173828 88.66000366210938 C 189.51490783691406 88.41999816894531 189.6915740966797 88.0999984741211 189.6915740966797 87.69999694824219 C 189.6915740966797 87.30000305175781 189.50823974609375 86.96666717529297 189.14158630371094 86.69999694824219 C 188.76824951171875 86.43333435058594 188.31825256347656 86.19999694824219 187.7915802001953 86 C 187.26490783691406 85.80000305175781 186.7415771484375 85.58000183105469 186.22158813476562 85.33999633789062 C 185.7015838623047 85.0999984741211 185.2582550048828 84.76667022705078 184.89158630371094 84.33999633789062 C 184.52491760253906 83.90666961669922 184.34158325195312 83.33999633789062 184.34158325195312 82.63999938964844 C 184.34158325195312 81.94667053222656 184.72491455078125 81.34333038330078 185.4915771484375 80.83000183105469 C 186.25823974609375 80.31666564941406 187.2349090576172 80.05999755859375 188.4215850830078 80.05999755859375 C 189.10824584960938 80.05999755859375 189.80157470703125 80.1500015258789 190.5015869140625 80.33000183105469 L 190.72158813476562 79.77999877929688 L 191.10157775878906 79.77999877929688 L 190.96157836914062 82.98999786376953 L 190.55157470703125 82.97000122070312 L 190.43157958984375 82.08000183105469 C 189.33157348632812 81.5999984741211 188.44491577148438 81.36000061035156 187.77157592773438 81.36000061035156 C 186.6649169921875 81.36000061035156 186.11158752441406 81.72666931152344 186.11158752441406 82.45999908447266 C 186.11158752441406 82.77999877929688 186.30157470703125 83.05999755859375 186.68157958984375 83.30000305175781 C 187.05491638183594 83.54000091552734 187.50491333007812 83.75666809082031 188.03158569335938 83.94999694824219 C 188.55824279785156 84.1433334350586 189.08824157714844 84.36000061035156 189.62158203125 84.5999984741211 C 190.14825439453125 84.83999633789062 190.59825134277344 85.18333435058594 190.97158813476562 85.62999725341797 C 191.35157775878906 86.07666778564453 191.5415802001953 86.61333465576172 191.5415802001953 87.23999786376953 C 191.5415802001953 88.1866683959961 191.14825439453125 88.9433364868164 190.36158752441406 89.51000213623047 C 189.57492065429688 90.07666778564453 188.534912109375 90.36000061035156 187.2415771484375 90.36000061035156 C 186.52157592773438 90.36000061035156 185.72824096679688 90.24666595458984 184.86158752441406 90.0199966430664 ZM 194.09300231933594 87.41000366210938 L 194.19300842285156 81.5999984741211 L 192.94300842285156 81.6500015258789 L 192.94300842285156 80.86000061035156 L 194.19300842285156 80.41999816894531 L 195.51300048828125 78.02000427246094 L 195.89300537109375 78.02000427246094 L 196.04299926757812 80.41999816894531 L 198.46299743652344 80.41999816894531 L 198.34300231933594 81.45999908447266 L 196.04299926757812 81.55000305175781 L 196.04299926757812 86.94999694824219 C 196.04299926757812 87.97666931152344 196.14633178710938 88.63666534423828 196.35299682617188 88.93000030517578 C 196.55966186523438 89.2300033569336 197.0296630859375 89.37999725341797 197.76300048828125 89.37999725341797 L 198.7030029296875 89.37999725341797 L 198.7530059814453 89.77999877929688 C 198.15966796875 90.16666412353516 197.42300415039062 90.36000061035156 196.54299926757812 90.36000061035156 C 195.6630096435547 90.36000061035156 195.0363311767578 90.13666534423828 194.6630096435547 89.69000244140625 C 194.2830047607422 89.24333190917969 194.09300231933594 88.48332977294922 194.09300231933594 87.41000366210938 Z" transform="matrix(3.585615873336792, 0, 0, 3.585615873336792, -278.63226318359375, -205.92733764648438)" style="fill: rgb(246, 255, 242); white-space: pre; color: rgb(2, 6, 13);"/><g transform="matrix(0.8061639666557312, 0, 0, 0.8061639666557312, -175.74366760253906, -230.67405605316162)"><g transform="matrix(1, 0, 0, 1, -1, -3)"><path d="M 405.599987 433 A 54.799999 4 0 0 1 350.799988 437 A 54.799999 4 0 0 1 295.999989 433 A 54.799999 4 0 0 1 350.799988 429 A 54.799999 4 0 0 1 405.599987 433 Z" class="st0" style="fill: rgb(255, 96, 38); opacity: 1;" transform="matrix(1, 0, 0, 1, 0, 0)"/><g transform="matrix(1, 0, 0, 1, 0.000005252941775779618, -0.000036208283290761756)">
	<path class="st5" d="M335.2,381.1c0,0-12.1,18.5-12.4,50h15.5c0,0-2.3-38.1,3.9-46.7L335.2,381.1z" style="fill: rgb(255, 96, 38); opacity: 1; stroke: rgb(0, 0, 0); stroke-width: 0; paint-order: fill;"/>
	<path class="st6" d="M315,379l27.2,19l3.2-8.7l18.9,6.4L371,353l6.6,4c0,0,14.8-61.2,28.4-66.1c-9.2-2.8-58.5,21.1-69.2,43.7h6.6&#10;&#9;&#9;C343.4,334.6,316.9,352.2,315,379z" style="fill: rgb(255, 96, 38); opacity: 1; stroke: rgb(0, 0, 0); stroke-width: 0; paint-order: fill;"/>
	<path class="st6" d="M396.4,315.3c0,0,5.3,3.5,8-3.5C404.4,311.8,398.7,309.4,396.4,315.3z" style="fill: rgb(255, 96, 38); opacity: 1; stroke: rgb(0, 0, 0); stroke-width: 0; paint-order: fill;"/>
	<path class="st6" d="M368.3,373.8c0,0,2,6,8.5,2.1C376.7,375.9,373.7,370.5,368.3,373.8z" style="fill: rgb(255, 96, 38); opacity: 1; stroke: rgb(0, 0, 0); stroke-width: 0; paint-order: fill;"/>
	<path class="st6" d="M367.1,392.4c0,0,5.3,3.5,8-3.5C375.1,388.8,369.4,386.4,367.1,392.4z" style="fill: rgb(255, 96, 38); opacity: 1; stroke: rgb(0, 0, 0); stroke-width: 0; paint-order: fill;"/>
	<path class="st6" d="M382.7,412.6c0,0,5.3,3.5,8-3.5C390.7,409.1,385,406.7,382.7,412.6z" style="fill: rgb(255, 96, 38); opacity: 1; stroke: rgb(0, 0, 0); stroke-width: 0; paint-order: fill;"/>
	<path class="st6" d="M401.3,307.3c0,0,6.2,1.3,6.1-6.2C407.4,301.1,401.3,301,401.3,307.3z" style="fill: rgb(255, 96, 38); opacity: 1; stroke: rgb(0, 0, 0); stroke-width: 0; paint-order: fill;"/>
	<g>
		<g>
			<path class="st3" d="M381.2,333c-1.2,0-2.3-0.8-2.8-2c-0.5-1.5,0.3-3.2,1.8-3.7l6.6-2.3c1.5-0.5,3.2,0.3,3.7,1.8&#10;&#9;&#9;&#9;&#9;c0.5,1.5-0.3,3.2-1.8,3.7l-6.6,2.3C381.8,332.9,381.5,333,381.2,333z" style="fill: rgb(255, 96, 38); opacity: 1; stroke: rgb(0, 0, 0); stroke-width: 0; paint-order: fill;"/>
		</g>
		<g>
			<path class="st3" d="M390.6,329.7c-1.2,0-2.3-0.8-2.8-2c-0.5-1.5,0.3-3.2,1.8-3.7l17-6c0.5-0.2,0.9-0.2,1.4-0.1&#10;&#9;&#9;&#9;&#9;c0.3-0.3,0.7-0.6,1.2-0.8l2.8-1c1.5-0.5,3.2,0.3,3.7,1.8c0.5,1.5-0.3,3.2-1.8,3.7l-2.8,1c-0.5,0.2-0.9,0.2-1.4,0.1&#10;&#9;&#9;&#9;&#9;c-0.3,0.3-0.7,0.6-1.2,0.8l-17,6C391.2,329.6,390.9,329.7,390.6,329.7z" style="fill: rgb(255, 96, 38); opacity: 1; stroke: rgb(0, 0, 0); stroke-width: 0; paint-order: fill;"/>
		</g>
		<g>
			<path class="st3" d="M430,315.9c-1.2,0-2.3-0.8-2.8-2c-0.5-1.5,0.3-3.2,1.8-3.7l6.6-2.3c1.5-0.5,3.2,0.3,3.7,1.8&#10;&#9;&#9;&#9;&#9;c0.5,1.5-0.3,3.2-1.8,3.7l-6.6,2.3C430.7,315.8,430.3,315.9,430,315.9z" style="fill: rgb(255, 96, 38); opacity: 1; stroke: rgb(0, 0, 0); stroke-width: 0; paint-order: fill;"/>
		</g>
	</g>
	<g>
		<g>
			<path class="st3" d="M349,367.1c-1.2,0-2.3-0.8-2.8-2c-0.5-1.5,0.3-3.2,1.8-3.7l6.6-2.3c1.5-0.5,3.2,0.3,3.7,1.8&#10;&#9;&#9;&#9;&#9;c0.5,1.5-0.3,3.2-1.8,3.7l-6.6,2.3C349.7,367,349.3,367.1,349,367.1z" style="fill: rgb(255, 96, 38); opacity: 1; stroke: rgb(0, 0, 0); stroke-width: 0; paint-order: fill;"/>
		</g>
		<g>
			<path class="st3" d="M352.9,362.8c-0.1-0.3-0.2-0.6-0.2-0.9l0,0c0-1.2,0.7-2.4,2-2.8l0,0c1.5-0.5,3.2,0.3,3.7,1.8l0,0&#10;&#9;&#9;&#9;&#9;c0.1,0.3,0.2,0.6,0.2,0.9l0,0c0,1.2-0.7,2.4-1.9,2.8l0,0c-0.3,0.1-0.6,0.2-1,0.2l0,0C354.4,364.7,353.3,364,352.9,362.8z" style="fill: rgb(255, 96, 38); opacity: 1; stroke: rgb(0, 0, 0); stroke-width: 0; paint-order: fill;"/>
		</g>
		<g>
			<path class="st3" d="M369.7,359.8c-1.2,0-2.3-0.8-2.7-1.9c-0.3-0.7-0.2-1.5,0.1-2.2c0.3-0.7,0.9-1.2,1.7-1.5l14.1-4.9&#10;&#9;&#9;&#9;&#9;c1.5-0.5,3.2,0.3,3.7,1.8c0.1,0.3,0.2,0.6,0.2,0.9c0,1.2-0.8,2.4-1.9,2.8l-14.1,4.9C370.4,359.8,370,359.8,369.7,359.8z" style="fill: rgb(255, 96, 38); opacity: 1; stroke: rgb(0, 0, 0); stroke-width: 0; paint-order: fill;"/>
		</g>
		<g>
			<path class="st3" d="M397.9,350c-1.2,0-2.3-0.8-2.8-2c-0.5-1.5,0.3-3.2,1.8-3.7l6.6-2.3c1.5-0.5,3.2,0.3,3.7,1.8&#10;&#9;&#9;&#9;&#9;c0.5,1.5-0.3,3.2-1.8,3.7l-6.6,2.3C398.5,349.9,398.2,350,397.9,350z" style="fill: rgb(255, 96, 38); opacity: 1; stroke: rgb(0, 0, 0); stroke-width: 0; paint-order: fill;"/>
		</g>
	</g>
	<g>
		<g>
			<path class="st3" d="M369.7,411.4c-1.2,0-2.3-0.8-2.8-2c-0.5-1.5,0.3-3.2,1.8-3.7l6.6-2.3c1.5-0.5,3.2,0.3,3.7,1.8&#10;&#9;&#9;&#9;&#9;c0.5,1.5-0.3,3.2-1.8,3.7l-6.6,2.3C370.3,411.3,370,411.4,369.7,411.4z" style="fill: rgb(255, 96, 38); opacity: 1; stroke: rgb(0, 0, 0); stroke-width: 0; paint-order: fill;"/>
		</g>
		<g>
			<path class="st3" d="M373.5,407.1c-0.1-0.3-0.2-0.6-0.2-0.9l0,0c0-1.2,0.7-2.4,2-2.8l0,0c1.5-0.5,3.2,0.3,3.7,1.8l0,0&#10;&#9;&#9;&#9;&#9;c0.1,0.3,0.2,0.6,0.2,0.9l0,0c0,1.2-0.7,2.4-1.9,2.8l0,0c-0.3,0.1-0.6,0.2-1,0.2l0,0C375.1,409.1,374,408.3,373.5,407.1z" style="fill: rgb(255, 96, 38); opacity: 1; stroke: rgb(0, 0, 0); stroke-width: 0; paint-order: fill;"/>
		</g>
		<g>
			<path class="st3" d="M390.4,404.1c-1.2,0-2.3-0.8-2.7-1.9c-0.3-0.7-0.2-1.5,0.1-2.2c0.3-0.7,0.9-1.2,1.7-1.5l14.1-4.9&#10;&#9;&#9;&#9;&#9;c1.5-0.5,3.2,0.3,3.7,1.8c0.1,0.3,0.2,0.6,0.2,0.9c0,1.2-0.8,2.4-1.9,2.8l-14.1,4.9C391,404.1,390.7,404.1,390.4,404.1z" style="fill: rgb(255, 96, 38); opacity: 1; stroke: rgb(0, 0, 0); stroke-width: 0; paint-order: fill;"/>
		</g>
		<g>
			<path class="st3" d="M418.5,394.3c-1.2,0-2.3-0.8-2.8-2c-0.5-1.5,0.3-3.2,1.8-3.7l6.6-2.3c1.5-0.5,3.2,0.3,3.7,1.8&#10;&#9;&#9;&#9;&#9;c0.5,1.5-0.3,3.2-1.8,3.7l-6.6,2.3C419.2,394.2,418.8,394.3,418.5,394.3z" style="fill: rgb(255, 96, 38); opacity: 1; stroke: rgb(0, 0, 0); stroke-width: 0; paint-order: fill;"/>
		</g>
	</g>
	<path class="st6" d="M355,421.2h26.6c0,0-0.3-5.4-4.2-4.6c0,0,1.1-7.4-5.4-6.7s-6.4,4-6.4,4s-5.3-2.4-6.5,2.9&#10;&#9;&#9;C359,416.8,355.7,416.5,355,421.2z" style="fill: rgb(255, 96, 38); opacity: 1; stroke: rgb(0, 0, 0); stroke-width: 0; paint-order: fill;"/>
	<path d="M 348.799988 421.200012 H 387.699989 V 424.300012 H 348.799988 V 421.200012 Z" class="st1" style="fill: rgb(255, 96, 38); opacity: 1; stroke: rgb(0, 0, 0); stroke-width: 0; paint-order: fill;"/>
	<path d="M 351 424.299988 H 386.700001 V 430.999988 H 351 V 424.299988 Z" class="st3" style="fill: rgb(255, 96, 38); opacity: 1; stroke: rgb(0, 0, 0); stroke-width: 0; paint-order: fill;"/>
</g></g></g></svg>